<mxfile host="app.diagrams.net" modified="2023-05-24T21:44:51.880Z" agent="Mozilla/5.0 (Windows NT 10.0; Win64; x64) AppleWebKit/537.36 (KHTML, like Gecko) Chrome/112.0.0.0 Safari/537.36 OPR/98.0.0.0" version="21.3.2" etag="dQSGefJzdBgp5zAaWxrG" type="github">
  <diagram name="Seite-1" id="QSCnC3udBJG2UHb_ROFW">
    <mxGraphModel>
      <root>
        <mxCell id="0" />
        <mxCell id="1" parent="0" />
      </root>
    </mxGraphModel>
  </diagram>
</mxfile>
